<?xml version="1.0" encoding="UTF-8"?>
<!DOCTYPE svg PUBLIC "-//W3C//DTD SVG 1.1//EN" "http://www.w3.org/Graphics/SVG/1.1/DTD/svg11.dtd">
<svg xmlns="http://www.w3.org/2000/svg" version="1.1" width="512px" height="512px" style="shape-rendering:geometricPrecision; text-rendering:geometricPrecision; image-rendering:optimizeQuality; fill-rule:evenodd; clip-rule:evenodd" xmlns:xlink="http://www.w3.org/1999/xlink">
<g><path style="opacity:0.919" fill="#000000" d="M 268.5,100.5 C 292,101.3 314.667,106.134 336.5,115C 360.51,124.339 384.51,133.673 408.5,143C 413.137,143.829 417.804,144.329 422.5,144.5C 422.335,141.482 422.502,138.482 423,135.5C 423.465,134.069 424.299,132.903 425.5,132C 441.833,131.333 458.167,131.333 474.5,132C 475,132.5 475.5,133 476,133.5C 476.667,169.5 476.667,205.5 476,241.5C 475.5,242 475,242.5 474.5,243C 458.926,244.635 443.259,244.968 427.5,244C 423.741,242.999 422.074,240.499 422.5,236.5C 383.076,244.693 344.742,241.193 307.5,226C 282.679,227.02 257.846,228.186 233,229.5C 219.505,231.082 208.838,226.415 201,215.5C 194.283,195.208 201.449,183.041 222.5,179C 169.173,177.636 115.839,177.303 62.5,178C 51.7738,180.062 45.9404,186.562 45,197.5C 44.3333,258.167 44.3333,318.833 45,379.5C 45.806,389.973 51.306,396.473 61.5,399C 167.89,399.993 274.223,399.66 380.5,398C 387.097,395.737 391.264,391.237 393,384.5C 393.333,340.833 393.667,297.167 394,253.5C 394.758,251.09 396.425,250.09 399,250.5C 401.034,250.354 402.701,251.02 404,252.5C 404.667,296.833 404.667,341.167 404,385.5C 401.046,399.454 392.546,407.621 378.5,410C 272.5,410.667 166.5,410.667 60.5,410C 47.3062,407.806 38.8062,400.306 35,387.5C 34.3333,321.5 34.3333,255.5 35,189.5C 38.9191,176.25 47.7524,168.75 61.5,167C 99.1667,166.667 136.833,166.333 174.5,166C 198.336,143.094 224.336,123.094 252.5,106C 257.74,103.534 263.073,101.7 268.5,100.5 Z M 270.5,111.5 C 294.334,113.375 317.334,118.875 339.5,128C 359.247,135.804 378.914,143.804 398.5,152C 406.366,154.078 414.366,155.244 422.5,155.5C 422.667,178.502 422.5,201.502 422,224.5C 383.825,233.703 346.659,230.537 310.5,215C 285.003,215.854 259.503,217.02 234,218.5C 227.454,219.12 221.287,217.953 215.5,215C 208.403,208.568 207.737,201.568 213.5,194C 244.259,184.893 275.259,176.56 306.5,169C 312.055,167.235 313.389,163.902 310.5,159C 309.271,158.219 307.938,157.719 306.5,157.5C 296.438,159.966 286.438,162.632 276.5,165.5C 275.804,162.444 274.97,159.444 274,156.5C 265.467,154.203 262.3,157.536 264.5,166.5C 240.164,166.667 215.831,166.5 191.5,166C 211.41,147.75 232.743,131.417 255.5,117C 260.434,114.637 265.434,112.804 270.5,111.5 Z M 433.5,142.5 C 444.5,142.5 455.5,142.5 466.5,142.5C 466.5,172.833 466.5,203.167 466.5,233.5C 455.5,233.5 444.5,233.5 433.5,233.5C 433.5,203.167 433.5,172.833 433.5,142.5 Z M 75.5,346.5 C 83.5,346.5 91.5,346.5 99.5,346.5C 99.5,352.167 99.5,357.833 99.5,363.5C 91.5,363.5 83.5,363.5 75.5,363.5C 75.5,357.833 75.5,352.167 75.5,346.5 Z M 128.5,346.5 C 136.5,346.5 144.5,346.5 152.5,346.5C 152.5,352.167 152.5,357.833 152.5,363.5C 144.5,363.5 136.5,363.5 128.5,363.5C 128.5,357.833 128.5,352.167 128.5,346.5 Z M 181.5,346.5 C 189.5,346.5 197.5,346.5 205.5,346.5C 205.5,352.167 205.5,357.833 205.5,363.5C 197.5,363.5 189.5,363.5 181.5,363.5C 181.5,357.833 181.5,352.167 181.5,346.5 Z M 233.5,346.5 C 241.5,346.5 249.5,346.5 257.5,346.5C 257.5,352.167 257.5,357.833 257.5,363.5C 249.5,363.5 241.5,363.5 233.5,363.5C 233.5,357.833 233.5,352.167 233.5,346.5 Z M 286.5,346.5 C 294.5,346.5 302.5,346.5 310.5,346.5C 310.5,352.167 310.5,357.833 310.5,363.5C 302.5,363.5 294.5,363.5 286.5,363.5C 286.5,357.833 286.5,352.167 286.5,346.5 Z M 338.5,346.5 C 346.5,346.5 354.5,346.5 362.5,346.5C 362.5,352.167 362.5,357.833 362.5,363.5C 354.5,363.5 346.5,363.5 338.5,363.5C 338.5,357.833 338.5,352.167 338.5,346.5 Z"/></g>
<g><path style="opacity:0.906" fill="#000000" d="M 74.5,237.5 C 96.2332,237.033 117.9,237.533 139.5,239C 141.709,240.873 143.542,243.04 145,245.5C 145.972,263.258 145.639,280.924 144,298.5C 142.127,300.709 139.96,302.542 137.5,304C 115.411,304.978 93.4114,304.644 71.5,303C 67.3808,300.261 65.2141,296.427 65,291.5C 64.3333,277.833 64.3333,264.167 65,250.5C 65.7283,244.286 68.8949,239.953 74.5,237.5 Z M 77.5,248.5 C 96.1696,248.333 114.836,248.5 133.5,249C 134.656,263.425 134.823,277.925 134,292.5C 115.24,293.659 96.4068,293.825 77.5,293C 76.8742,292.25 76.3742,291.416 76,290.5C 75.3333,277.5 75.3333,264.5 76,251.5C 76.5133,250.473 77.0133,249.473 77.5,248.5 Z"/></g>
<g><path style="opacity:0.909" fill="#000000" d="M 67.5,335.5 C 81.1707,335.333 94.8374,335.5 108.5,336C 109,336.5 109.5,337 110,337.5C 110.667,349.167 110.667,360.833 110,372.5C 109.5,373 109,373.5 108.5,374C 94.8333,374.667 81.1667,374.667 67.5,374C 66.1068,372.829 65.2735,371.329 65,369.5C 64.3333,359.833 64.3333,350.167 65,340.5C 65.3661,338.548 66.1995,336.882 67.5,335.5 Z M 75.5,346.5 C 75.5,352.167 75.5,357.833 75.5,363.5C 83.5,363.5 91.5,363.5 99.5,363.5C 99.5,357.833 99.5,352.167 99.5,346.5C 91.5,346.5 83.5,346.5 75.5,346.5 Z"/></g>
<g><path style="opacity:0.908" fill="#000000" d="M 120.5,335.5 C 134.216,335.185 147.883,335.518 161.5,336.5C 162.192,337.025 162.692,337.692 163,338.5C 163.811,349.88 163.645,361.213 162.5,372.5C 161.975,373.192 161.308,373.692 160.5,374C 146.788,374.815 133.121,374.648 119.5,373.5C 118.808,372.975 118.308,372.308 118,371.5C 117.333,360.5 117.333,349.5 118,338.5C 118.698,337.309 119.531,336.309 120.5,335.5 Z M 128.5,346.5 C 128.5,352.167 128.5,357.833 128.5,363.5C 136.5,363.5 144.5,363.5 152.5,363.5C 152.5,357.833 152.5,352.167 152.5,346.5C 144.5,346.5 136.5,346.5 128.5,346.5 Z"/></g>
<g><path style="opacity:0.909" fill="#000000" d="M 172.5,335.5 C 186.171,335.333 199.837,335.5 213.5,336C 214.893,337.171 215.727,338.671 216,340.5C 216.928,351.24 216.595,361.907 215,372.5C 214.5,373 214,373.5 213.5,374C 199.833,374.667 186.167,374.667 172.5,374C 172,373.5 171.5,373 171,372.5C 170.333,360.833 170.333,349.167 171,337.5C 171.717,336.956 172.217,336.289 172.5,335.5 Z M 181.5,346.5 C 181.5,352.167 181.5,357.833 181.5,363.5C 189.5,363.5 197.5,363.5 205.5,363.5C 205.5,357.833 205.5,352.167 205.5,346.5C 197.5,346.5 189.5,346.5 181.5,346.5 Z"/></g>
<g><path style="opacity:0.908" fill="#000000" d="M 225.5,335.5 C 239.216,335.185 252.883,335.518 266.5,336.5C 267.192,337.025 267.692,337.692 268,338.5C 268.811,349.88 268.645,361.213 267.5,372.5C 266.975,373.192 266.308,373.692 265.5,374C 251.788,374.815 238.121,374.648 224.5,373.5C 223.808,372.975 223.308,372.308 223,371.5C 222.333,360.5 222.333,349.5 223,338.5C 223.698,337.309 224.531,336.309 225.5,335.5 Z M 233.5,346.5 C 233.5,352.167 233.5,357.833 233.5,363.5C 241.5,363.5 249.5,363.5 257.5,363.5C 257.5,357.833 257.5,352.167 257.5,346.5C 249.5,346.5 241.5,346.5 233.5,346.5 Z"/></g>
<g><path style="opacity:0.908" fill="#000000" d="M 277.5,335.5 C 291.171,335.333 304.837,335.5 318.5,336C 319.701,336.903 320.535,338.069 321,339.5C 321.954,350.598 321.62,361.598 320,372.5C 319.5,373 319,373.5 318.5,374C 304.833,374.667 291.167,374.667 277.5,374C 277,373.5 276.5,373 276,372.5C 275.333,360.833 275.333,349.167 276,337.5C 276.717,336.956 277.217,336.289 277.5,335.5 Z M 286.5,346.5 C 286.5,352.167 286.5,357.833 286.5,363.5C 294.5,363.5 302.5,363.5 310.5,363.5C 310.5,357.833 310.5,352.167 310.5,346.5C 302.5,346.5 294.5,346.5 286.5,346.5 Z"/></g>
<g><path style="opacity:0.909" fill="#000000" d="M 330.5,335.5 C 344.216,335.185 357.883,335.518 371.5,336.5C 372.192,337.025 372.692,337.692 373,338.5C 373.811,349.88 373.645,361.213 372.5,372.5C 371.975,373.192 371.308,373.692 370.5,374C 357.167,374.667 343.833,374.667 330.5,374C 329.667,373.167 328.833,372.333 328,371.5C 327.333,360.5 327.333,349.5 328,338.5C 329.045,337.627 329.878,336.627 330.5,335.5 Z M 338.5,346.5 C 338.5,352.167 338.5,357.833 338.5,363.5C 346.5,363.5 354.5,363.5 362.5,363.5C 362.5,357.833 362.5,352.167 362.5,346.5C 354.5,346.5 346.5,346.5 338.5,346.5 Z"/></g>
</svg>
