<?xml version="1.0" encoding="UTF-8"?>
<svg version="1.1" xmlns="http://www.w3.org/2000/svg" width="64" height="64">
<path d="M0 0 C0.7434668 0.23154785 1.48693359 0.4630957 2.25292969 0.70166016 C1.94322075 6.08659943 -1.10137139 8.52633419 -4.80957031 12.01416016 C-5.37740234 12.56394531 -5.94523437 13.11373047 -6.53027344 13.68017578 C-7.92697956 15.0299338 -9.33585868 16.3670754 -10.74707031 17.70166016 C-8.93469772 22.36989259 -5.12523296 25.30725024 -1.47167969 28.54736328 C0.01464844 29.94775391 0.01464844 29.94775391 2.25292969 32.70166016 C2.08496094 35.54931641 2.08496094 35.54931641 1.25292969 37.70166016 C-4.96610676 36.9102692 -7.86566771 33.24586384 -12.12207031 28.95166016 C-12.87101562 28.23494141 -13.61996094 27.51822266 -14.39160156 26.77978516 C-15.09414063 26.07853516 -15.79667969 25.37728516 -16.52050781 24.65478516 C-17.1642334 24.01702148 -17.80795898 23.37925781 -18.47119141 22.72216797 C-19.74707031 20.70166016 -19.74707031 20.70166016 -19.66259766 18.20605469 C-17.98977996 13.63011765 -14.40093888 10.7005651 -10.99707031 7.32666016 C-10.28035156 6.57771484 -9.56363281 5.82876953 -8.82519531 5.05712891 C-7.77332031 4.00332031 -7.77332031 4.00332031 -6.70019531 2.92822266 C-6.06243164 2.28449707 -5.42466797 1.64077148 -4.76757812 0.97753906 C-2.74707031 -0.29833984 -2.74707031 -0.29833984 0 0 Z " fill="#000000" transform="translate(40.7470703125,13.29833984375)"/>
</svg>
