<svg width="48.060928" height="24.000000" viewBox="0 0 48.0609 24" fill="none" xmlns="http://www.w3.org/2000/svg" xmlns:xlink="http://www.w3.org/1999/xlink">
    <desc>
        Created with Pixso.
    </desc>
    <defs/>
    <path id="path60" d="M42.57 6.85L42.57 12.71L40.41 12.71L40.41 8.6L38.33 8.6L38.33 12.71L36.18 12.71L36.18 6.85L42.57 6.85Z" fill="#000000" fill-opacity="1.000000" fill-rule="nonzero"/>
    <path id="path62" d="M31.74 12.92C33.68 12.92 35.11 11.77 35.11 10.03C35.11 8.34 34.05 7.25 32.28 7.25C31.47 7.25 30.79 7.53 30.28 8.01C30.41 7.01 31.27 6.29 32.23 6.29C32.45 6.29 34.11 6.28 34.11 6.28L35.04 4.54C35.04 4.54 32.96 4.59 31.99 4.59C29.78 4.62 28.29 6.58 28.29 8.94C28.29 11.71 29.75 12.92 31.74 12.92ZM31.75 8.79C32.47 8.79 32.97 9.25 32.97 10.03C32.97 10.73 32.53 11.31 31.75 11.32C31.02 11.32 30.52 10.78 30.52 10.04C30.52 9.26 31.02 8.79 31.75 8.79Z" fill="#000000" fill-opacity="1.000000" fill-rule="evenodd"/>
    <path id="path64" d="M26.53 10.75C26.53 10.75 26.02 11.03 25.26 11.09C24.39 11.11 23.61 10.58 23.61 9.62C23.61 8.69 24.29 8.16 25.24 8.16C25.82 8.16 26.59 8.55 26.59 8.55C26.59 8.55 27.15 7.55 27.44 7.05C26.9 6.66 26.2 6.45 25.37 6.45C23.29 6.45 21.68 7.76 21.68 9.61C21.68 11.48 23.2 12.77 25.37 12.73C25.98 12.71 26.82 12.5 27.33 12.18L26.53 10.75Z" fill="#000000" fill-opacity="1.000000" fill-rule="nonzero"/>
    <path id="path66" d="M1.52e-5 5.22L2.99 10.41L2.99 13.58L0 18.77L1.52e-5 5.22Z" fill="#5B57A2" fill-opacity="1.000000" fill-rule="nonzero"/>
    <path id="path68" d="M11.49 8.52L14.29 6.85L20.04 6.85L11.49 11.93L11.49 8.52Z" fill="#D90751" fill-opacity="1.000000" fill-rule="nonzero"/>
    <path id="path70" d="M11.47 5.19L11.49 12.07L8.49 10.28L8.49 0L11.47 5.19Z" fill="#FAB718" fill-opacity="1.000000" fill-rule="nonzero"/>
    <path id="path72" d="M20.04 6.85L14.29 6.85L11.47 5.19L8.49 0L20.04 6.85Z" fill="#ED6F26" fill-opacity="1.000000" fill-rule="nonzero"/>
    <path id="path74" d="M11.49 18.8L11.49 15.46L8.49 13.7L8.49 24L11.49 18.8Z" fill="#63B22F" fill-opacity="1.000000" fill-rule="nonzero"/>
    <path id="path76" d="M14.29 17.14L2.99 10.41L0 5.22L20.02 17.14L14.29 17.14Z" fill="#1487C9" fill-opacity="1.000000" fill-rule="nonzero"/>
    <path id="path78" d="M8.49 24L11.49 18.8L14.29 17.14L20.02 17.14L8.49 24Z" fill="#017F36" fill-opacity="1.000000" fill-rule="nonzero"/>
    <path id="path80" d="M0 18.77L8.51 13.7L5.65 12L2.99 13.58L0 18.77Z" fill="#984995" fill-opacity="1.000000" fill-rule="nonzero"/>
    <path id="path82" d="M23.61 16.66C23.54 16.74 23.45 16.81 23.35 16.85C23.24 16.89 23.13 16.91 23.01 16.91C22.9 16.91 22.79 16.89 22.68 16.86C22.58 16.82 22.49 16.77 22.42 16.7C22.34 16.63 22.29 16.55 22.25 16.45C22.21 16.35 22.19 16.25 22.19 16.14C22.19 16.03 22.21 15.93 22.25 15.83C22.28 15.74 22.34 15.66 22.41 15.59C22.48 15.52 22.56 15.47 22.66 15.42C22.75 15.38 22.86 15.36 22.97 15.36C23.09 15.36 23.21 15.38 23.31 15.41C23.42 15.44 23.5 15.49 23.58 15.56L23.45 15.77C23.39 15.71 23.32 15.67 23.24 15.65C23.16 15.62 23.09 15.61 23.01 15.61C22.94 15.61 22.87 15.62 22.81 15.65C22.74 15.67 22.69 15.71 22.64 15.76C22.59 15.8 22.55 15.86 22.52 15.92C22.49 15.99 22.48 16.06 22.48 16.14C22.48 16.22 22.49 16.29 22.52 16.36C22.55 16.42 22.59 16.48 22.64 16.52C22.69 16.57 22.75 16.6 22.82 16.63C22.89 16.65 22.96 16.66 23.04 16.66C23.13 16.66 23.21 16.65 23.29 16.61C23.36 16.58 23.42 16.53 23.48 16.47L23.61 16.66ZM23.96 16.88L23.96 15.39L24.24 15.39L24.24 16.5L25.13 15.39L25.4 15.39L25.4 16.88L25.13 16.88L25.13 15.77L24.24 16.88L23.96 16.88ZM27.22 16.66C27.15 16.75 27.06 16.81 26.96 16.85C26.85 16.89 26.74 16.91 26.63 16.91C26.51 16.91 26.4 16.89 26.29 16.86C26.19 16.82 26.1 16.77 26.03 16.7C25.95 16.63 25.9 16.55 25.86 16.45C25.82 16.35 25.8 16.25 25.8 16.14C25.8 16.03 25.82 15.93 25.86 15.83C25.9 15.74 25.95 15.66 26.02 15.59C26.09 15.52 26.17 15.47 26.27 15.42C26.37 15.38 26.47 15.36 26.58 15.36C26.7 15.36 26.82 15.38 26.92 15.41C27.03 15.44 27.11 15.49 27.19 15.56L27.06 15.77C27 15.71 26.93 15.67 26.85 15.65C26.77 15.62 26.7 15.61 26.62 15.61C26.48 15.61 26.35 15.66 26.25 15.76C26.2 15.8 26.16 15.86 26.13 15.92C26.1 15.99 26.09 16.06 26.09 16.14C26.09 16.22 26.11 16.29 26.14 16.36C26.16 16.42 26.2 16.48 26.25 16.52C26.3 16.57 26.36 16.6 26.43 16.63C26.5 16.65 26.57 16.66 26.65 16.66C26.74 16.66 26.82 16.65 26.9 16.61C26.97 16.58 27.03 16.53 27.09 16.47L27.22 16.66ZM27.36 15.39L28.76 15.39L28.76 15.66L28.2 15.66L28.2 16.88L27.93 16.88L27.93 15.66L27.36 15.66L27.36 15.39Z" fill="#000000" fill-opacity="1.000000" fill-rule="nonzero"/>
    <path id="path84" d="M30.04 16.86C30.15 16.83 30.24 16.78 30.31 16.71L30.23 16.51C30.18 16.55 30.11 16.59 30.03 16.62C29.95 16.65 29.86 16.66 29.76 16.66C29.61 16.66 29.48 16.62 29.38 16.55C29.28 16.47 29.23 16.36 29.22 16.22L30.4 16.22C30.42 16.17 30.42 16.11 30.42 16.04C30.42 15.94 30.4 15.85 30.36 15.76C30.33 15.68 30.28 15.61 30.21 15.55C30.14 15.49 30.07 15.44 29.98 15.41C29.89 15.38 29.8 15.36 29.7 15.36C29.57 15.36 29.46 15.38 29.36 15.42C29.27 15.46 29.19 15.52 29.11 15.59C29.05 15.66 28.99 15.74 28.96 15.83C28.92 15.93 28.91 16.03 28.91 16.14C28.91 16.25 28.93 16.36 28.97 16.45C29 16.55 29.06 16.63 29.13 16.7C29.2 16.77 29.29 16.82 29.39 16.85C29.5 16.89 29.62 16.91 29.73 16.91C29.84 16.91 29.94 16.89 30.04 16.86ZM29.35 15.72C29.44 15.65 29.55 15.61 29.69 15.61C29.82 15.61 29.93 15.64 30.01 15.71C30.09 15.78 30.13 15.88 30.14 16L29.2 16C29.21 15.89 29.26 15.8 29.35 15.72Z" fill="#000000" fill-opacity="1.000000" fill-rule="evenodd"/>
    <path id="path86" d="M30.79 15.39L31.04 15.39L31.64 16.13L32.2 15.39L32.44 15.39L32.44 16.88L32.17 16.88L32.17 15.8L31.63 16.48L31.07 15.8L31.07 16.88L30.79 16.88L30.79 15.39Z" fill="#000000" fill-opacity="1.000000" fill-rule="nonzero"/>
    <path id="path88" d="M33.19 15.4C33.1 15.42 33.02 15.45 32.95 15.5L33.02 15.71C33.08 15.68 33.15 15.65 33.21 15.63C33.27 15.61 33.35 15.6 33.45 15.6C33.52 15.6 33.58 15.61 33.63 15.63C33.68 15.66 33.71 15.69 33.74 15.73C33.76 15.77 33.78 15.82 33.79 15.88C33.79 15.93 33.8 16 33.8 16.07C33.74 16.03 33.68 16 33.61 15.99C33.54 15.98 33.48 15.97 33.41 15.97C33.33 15.97 33.25 15.98 33.18 16C33.11 16.02 33.05 16.05 33 16.09C32.94 16.13 32.9 16.18 32.87 16.24C32.84 16.31 32.83 16.37 32.83 16.44C32.83 16.59 32.87 16.7 32.96 16.78C33.05 16.86 33.16 16.9 33.3 16.9C33.43 16.9 33.53 16.88 33.61 16.84C33.69 16.79 33.75 16.74 33.8 16.69L33.8 16.88L34.05 16.88L34.05 15.97C34.05 15.78 34.01 15.63 33.92 15.52C33.84 15.42 33.68 15.36 33.46 15.36C33.37 15.36 33.27 15.38 33.19 15.4ZM33.64 16.6C33.58 16.64 33.5 16.66 33.4 16.66C33.31 16.66 33.24 16.64 33.19 16.6C33.14 16.56 33.12 16.5 33.12 16.43C33.12 16.39 33.13 16.35 33.15 16.32C33.17 16.29 33.19 16.26 33.22 16.24C33.25 16.22 33.29 16.21 33.33 16.2C33.37 16.19 33.41 16.18 33.45 16.18C33.58 16.18 33.7 16.22 33.8 16.28L33.8 16.47C33.75 16.52 33.7 16.56 33.64 16.6ZM36.47 14.87C36.53 14.85 36.58 14.81 36.63 14.75L36.48 14.54C36.44 14.59 36.4 14.62 36.35 14.64C36.3 14.66 36.24 14.67 36.19 14.68L36.14 14.69C36.09 14.7 36.04 14.71 35.99 14.72C35.91 14.73 35.83 14.76 35.75 14.79C35.63 14.84 35.53 14.91 35.45 15C35.38 15.09 35.32 15.19 35.28 15.3C35.24 15.41 35.21 15.52 35.2 15.64C35.18 15.76 35.18 15.88 35.18 15.99C35.18 16.13 35.2 16.26 35.23 16.37C35.27 16.49 35.33 16.58 35.4 16.66C35.47 16.74 35.55 16.8 35.65 16.84C35.75 16.89 35.87 16.91 35.99 16.91C36.11 16.91 36.22 16.89 36.31 16.85C36.41 16.81 36.49 16.75 36.56 16.68C36.63 16.61 36.69 16.53 36.73 16.44C36.77 16.35 36.79 16.25 36.79 16.15C36.79 16.04 36.77 15.94 36.74 15.85C36.71 15.76 36.66 15.68 36.59 15.61C36.53 15.55 36.45 15.5 36.37 15.46C36.27 15.43 36.17 15.41 36.07 15.41C36 15.41 35.94 15.42 35.88 15.44C35.81 15.45 35.76 15.48 35.7 15.51C35.65 15.54 35.6 15.57 35.56 15.62C35.52 15.66 35.48 15.7 35.46 15.76C35.46 15.69 35.47 15.62 35.48 15.55C35.5 15.48 35.52 15.41 35.55 15.34C35.58 15.28 35.62 15.22 35.66 15.17C35.71 15.11 35.77 15.07 35.84 15.04C35.92 15.01 36 14.98 36.08 14.97L36.13 14.96C36.19 14.95 36.24 14.94 36.29 14.93C36.36 14.91 36.42 14.9 36.47 14.87ZM35.51 16.3C35.48 16.21 35.47 16.13 35.47 16.04C35.48 15.99 35.5 15.94 35.53 15.9C35.56 15.85 35.6 15.81 35.65 15.78C35.75 15.7 35.87 15.66 36 15.66C36.16 15.66 36.29 15.71 36.37 15.8C36.45 15.9 36.5 16.02 36.5 16.16C36.5 16.23 36.48 16.3 36.46 16.36C36.41 16.48 36.32 16.57 36.2 16.62C36.13 16.65 36.06 16.66 35.99 16.66C35.91 16.66 35.84 16.65 35.78 16.62C35.71 16.59 35.66 16.55 35.61 16.49C35.57 16.43 35.53 16.37 35.51 16.3ZM38.89 15.39L38.61 15.39L38.61 16.88L38.89 16.88L38.89 15.39ZM37.18 15.39L37.46 15.39L37.46 15.84L37.71 15.84C37.83 15.84 37.92 15.85 38 15.88C38.08 15.91 38.14 15.95 38.19 16C38.24 16.04 38.27 16.1 38.29 16.16C38.31 16.22 38.32 16.28 38.32 16.35C38.32 16.42 38.31 16.48 38.29 16.54C38.26 16.61 38.23 16.66 38.18 16.71C38.13 16.76 38.07 16.8 37.98 16.83C37.9 16.86 37.8 16.88 37.68 16.88L37.18 16.88L37.18 15.39ZM37.46 16.09L37.46 16.63L37.65 16.63C37.79 16.63 37.89 16.61 37.94 16.56C38 16.51 38.03 16.45 38.03 16.36C38.03 16.27 38 16.2 37.94 16.15C37.89 16.11 37.79 16.08 37.66 16.08L37.46 16.09Z" fill="#000000" fill-opacity="1.000000" fill-rule="evenodd"/>
    <path id="path90" d="M40.7 16.66C40.63 16.74 40.55 16.81 40.44 16.85C40.33 16.89 40.22 16.91 40.11 16.91C39.99 16.91 39.88 16.89 39.77 16.86C39.67 16.82 39.58 16.77 39.51 16.7C39.43 16.63 39.38 16.55 39.34 16.45C39.3 16.35 39.28 16.25 39.28 16.14C39.28 16.03 39.3 15.93 39.34 15.83C39.38 15.74 39.43 15.66 39.5 15.59C39.57 15.52 39.65 15.47 39.75 15.42C39.85 15.38 39.95 15.36 40.06 15.36C40.18 15.36 40.3 15.38 40.4 15.41C40.51 15.44 40.59 15.49 40.67 15.56L40.54 15.77C40.48 15.71 40.41 15.67 40.33 15.65C40.25 15.62 40.18 15.61 40.1 15.61C40.03 15.61 39.96 15.62 39.9 15.65C39.84 15.67 39.78 15.71 39.73 15.76C39.68 15.8 39.64 15.86 39.61 15.92C39.58 15.99 39.57 16.06 39.57 16.14C39.57 16.22 39.59 16.29 39.62 16.36C39.64 16.42 39.68 16.48 39.73 16.52C39.79 16.57 39.84 16.6 39.91 16.63C39.98 16.65 40.05 16.66 40.13 16.66C40.22 16.66 40.3 16.65 40.38 16.61C40.45 16.58 40.51 16.53 40.57 16.47L40.7 16.66ZM40.84 15.39L42.25 15.39L42.25 15.66L41.68 15.66L41.68 16.88L41.41 16.88L41.41 15.66L40.84 15.66L40.84 15.39Z" fill="#000000" fill-opacity="1.000000" fill-rule="nonzero"/>
    <path id="path92" d="M42.82 15.39L42.54 15.39L42.54 17.53L42.82 17.53L42.82 16.81C42.87 16.84 42.94 16.87 43.01 16.88C43.09 16.9 43.17 16.91 43.25 16.91C43.37 16.91 43.48 16.89 43.58 16.85C43.68 16.81 43.76 16.75 43.83 16.68C43.91 16.61 43.96 16.52 44 16.43C44.04 16.33 44.05 16.22 44.05 16.11C44.05 16 44.04 15.9 44 15.81C43.97 15.72 43.93 15.64 43.86 15.57C43.8 15.5 43.73 15.45 43.64 15.42C43.54 15.38 43.45 15.36 43.34 15.36C43.23 15.36 43.13 15.38 43.04 15.42C42.94 15.46 42.87 15.51 42.82 15.57L42.82 15.39ZM43.01 15.67C43.09 15.63 43.17 15.61 43.26 15.61C43.34 15.61 43.41 15.62 43.48 15.65C43.54 15.67 43.59 15.71 43.64 15.75C43.68 15.8 43.71 15.85 43.73 15.92C43.76 15.98 43.77 16.05 43.77 16.12C43.77 16.2 43.75 16.27 43.73 16.34C43.7 16.4 43.67 16.46 43.62 16.51C43.57 16.56 43.52 16.6 43.45 16.62C43.38 16.65 43.31 16.66 43.23 16.66C43.16 16.66 43.09 16.65 43.02 16.64C42.95 16.62 42.88 16.59 42.82 16.55L42.82 15.81C42.87 15.76 42.93 15.71 43.01 15.67ZM46.16 15.39L45.88 15.39L45.88 16.88L46.16 16.88L46.16 15.39ZM44.45 15.39L44.72 15.39L44.72 15.84L44.98 15.84C45.1 15.84 45.19 15.85 45.27 15.88C45.35 15.91 45.41 15.95 45.46 16C45.5 16.04 45.54 16.1 45.56 16.16C45.58 16.22 45.59 16.28 45.59 16.35C45.59 16.42 45.58 16.48 45.55 16.54C45.53 16.61 45.5 16.66 45.45 16.71C45.4 16.76 45.33 16.8 45.25 16.83C45.17 16.86 45.07 16.88 44.94 16.88L44.45 16.88L44.45 15.39ZM44.72 16.09L44.72 16.63L44.92 16.63C45.06 16.63 45.16 16.61 45.21 16.56C45.27 16.51 45.3 16.45 45.3 16.36C45.3 16.27 45.27 16.2 45.21 16.15C45.15 16.11 45.06 16.08 44.93 16.08L44.72 16.09Z" fill="#000000" fill-opacity="1.000000" fill-rule="evenodd"/>
    <path id="path94" d="M47.47 16.11L48.06 16.88L47.72 16.88L47.27 16.28L46.81 16.88L46.49 16.88L47.07 16.12L46.52 15.39L46.86 15.39L47.28 15.95L47.7 15.39L48.02 15.39L47.47 16.11ZM23.4 18.71L22.56 18.71L22.56 19.94L22.29 19.94L22.29 18.46L23.68 18.46L23.68 19.94L23.4 19.94L23.4 18.71ZM25.23 18.72L24.69 18.72L24.68 18.97C24.66 19.18 24.63 19.35 24.59 19.48C24.56 19.61 24.51 19.71 24.46 19.78C24.41 19.85 24.35 19.9 24.28 19.92C24.21 19.95 24.13 19.96 24.05 19.96L24.03 19.7C24.06 19.71 24.1 19.7 24.14 19.68C24.17 19.67 24.21 19.63 24.25 19.58C24.29 19.52 24.32 19.44 24.35 19.34C24.38 19.23 24.4 19.09 24.41 18.92L24.43 18.46L25.51 18.46L25.51 19.94L25.23 19.94L25.23 18.72Z" fill="#000000" fill-opacity="1.000000" fill-rule="nonzero"/>
    <path id="path96" d="M26.25 18.46C26.16 18.49 26.08 18.52 26.01 18.56L26.08 18.77C26.15 18.74 26.21 18.72 26.27 18.69C26.33 18.67 26.41 18.66 26.51 18.66C26.58 18.66 26.64 18.67 26.69 18.7C26.74 18.72 26.77 18.75 26.8 18.79C26.82 18.83 26.84 18.88 26.85 18.94C26.85 19 26.86 19.06 26.86 19.13C26.8 19.09 26.74 19.07 26.67 19.06C26.61 19.04 26.54 19.04 26.47 19.04C26.39 19.04 26.32 19.05 26.24 19.07C26.17 19.09 26.11 19.12 26.06 19.16C26 19.2 25.96 19.25 25.94 19.31C25.9 19.37 25.89 19.44 25.89 19.51C25.89 19.65 25.93 19.76 26.02 19.84C26.11 19.92 26.22 19.96 26.36 19.96C26.49 19.96 26.59 19.94 26.67 19.9C26.75 19.86 26.81 19.81 26.86 19.75L26.86 19.94L27.11 19.94L27.11 19.03C27.11 18.84 27.07 18.69 26.98 18.58C26.9 18.48 26.74 18.43 26.52 18.43C26.43 18.43 26.34 18.44 26.25 18.46ZM26.71 19.66C26.64 19.71 26.56 19.73 26.46 19.73C26.37 19.73 26.3 19.7 26.25 19.66C26.21 19.62 26.18 19.56 26.18 19.49C26.18 19.45 26.19 19.42 26.21 19.39C26.23 19.35 26.25 19.33 26.28 19.31C26.31 19.29 26.35 19.27 26.39 19.26C26.43 19.25 26.47 19.25 26.51 19.25C26.65 19.25 26.76 19.28 26.86 19.35L26.86 19.53C26.81 19.58 26.76 19.63 26.71 19.66Z" fill="#000000" fill-opacity="1.000000" fill-rule="evenodd"/>
    <path id="path98" d="M27.38 18.46L28.79 18.46L28.79 18.72L28.22 18.72L28.22 19.94L27.95 19.94L27.95 18.72L27.38 18.72L27.38 18.46Z" fill="#000000" fill-opacity="1.000000" fill-rule="nonzero"/>
    <path id="path100" d="M30.07 19.93C30.17 19.89 30.26 19.85 30.34 19.78L30.25 19.57C30.2 19.62 30.14 19.65 30.05 19.68C29.97 19.71 29.88 19.73 29.78 19.73C29.63 19.73 29.51 19.69 29.41 19.61C29.31 19.53 29.25 19.42 29.24 19.28L30.43 19.28C30.44 19.23 30.44 19.17 30.44 19.11C30.44 19 30.43 18.91 30.39 18.83C30.35 18.75 30.3 18.68 30.23 18.61C30.17 18.55 30.09 18.51 30.01 18.48C29.92 18.44 29.82 18.43 29.73 18.43C29.6 18.43 29.49 18.45 29.39 18.49C29.29 18.53 29.21 18.58 29.14 18.65C29.07 18.72 29.02 18.81 28.98 18.9C28.95 19 28.93 19.1 28.93 19.2C28.93 19.32 28.95 19.42 28.99 19.52C29.03 19.61 29.09 19.69 29.16 19.76C29.23 19.83 29.31 19.88 29.42 19.92C29.53 19.96 29.64 19.98 29.76 19.97C29.86 19.97 29.96 19.96 30.07 19.93ZM29.37 18.78C29.46 18.71 29.57 18.67 29.71 18.67C29.85 18.67 29.95 18.71 30.03 18.78C30.11 18.85 30.15 18.94 30.16 19.07L29.22 19.07C29.24 18.95 29.29 18.86 29.37 18.78ZM30.58 18.46L30.92 18.46L31.45 19.17L30.89 19.94L30.55 19.94L31.14 19.17L30.58 18.46ZM31.52 18.46L31.8 18.46L31.8 19.94L31.52 19.94L31.52 18.46ZM32.77 19.94L32.17 19.17L32.73 18.46L32.39 18.46L31.86 19.17L32.43 19.94L32.77 19.94ZM34.03 19.93C34.13 19.89 34.22 19.85 34.29 19.78L34.21 19.57C34.16 19.62 34.09 19.65 34.01 19.68C33.93 19.71 33.84 19.73 33.74 19.73C33.59 19.73 33.46 19.69 33.36 19.61C33.27 19.53 33.21 19.42 33.2 19.28L34.39 19.28C34.4 19.23 34.4 19.17 34.4 19.11C34.4 19 34.38 18.91 34.34 18.83C34.31 18.75 34.26 18.68 34.19 18.61C34.13 18.55 34.05 18.51 33.96 18.48C33.87 18.44 33.78 18.43 33.68 18.43C33.56 18.43 33.44 18.45 33.34 18.49C33.25 18.53 33.17 18.58 33.1 18.65C33.03 18.72 32.98 18.81 32.94 18.9C32.91 19 32.89 19.1 32.89 19.2C32.89 19.32 32.91 19.42 32.95 19.52C32.99 19.61 33.04 19.69 33.11 19.76C33.19 19.83 33.27 19.88 33.37 19.92C33.48 19.96 33.6 19.98 33.72 19.97C33.82 19.97 33.93 19.96 34.03 19.93ZM33.33 18.78C33.42 18.71 33.53 18.67 33.67 18.67C33.8 18.67 33.91 18.71 33.99 18.78C34.07 18.85 34.11 18.94 34.12 19.07L33.18 19.07C33.19 18.95 33.24 18.86 33.33 18.78ZM35.51 17.96C35.35 17.96 35.26 17.88 35.25 17.7L34.99 17.7C34.99 17.77 35 17.83 35.03 17.89C35.05 17.94 35.08 17.99 35.13 18.03C35.17 18.07 35.22 18.1 35.29 18.13C35.35 18.15 35.43 18.16 35.51 18.16C35.59 18.16 35.66 18.15 35.72 18.13C35.78 18.1 35.84 18.07 35.88 18.03C35.92 17.99 35.96 17.94 35.98 17.89C36.01 17.83 36.02 17.77 36.02 17.7L35.76 17.7C35.75 17.88 35.67 17.96 35.51 17.96ZM34.77 18.46L34.77 19.94L35.05 19.94L35.94 18.84L35.94 19.94L36.21 19.94L36.21 18.46L35.94 18.46L35.05 19.56L35.05 18.46L34.77 18.46Z" fill="#000000" fill-opacity="1.000000" fill-rule="evenodd"/>
</svg>